<svg xmlns="http://www.w3.org/2000/svg" width="305.317" height="32" viewBox="0 0 305.317 32">
  <g id="그룹_491" data-name="그룹 491" transform="translate(-207 -32)">
    <g id="GNB_logo_M" transform="translate(-54.555 -453.699)">
      <rect id="사각형_513" data-name="사각형 513" width="4.635" height="18.31" transform="translate(347.777 493.298)" fill="#1a1311"/>
      <path id="패스_175" data-name="패스 175" d="M262.555,511.341V493.016h6.1l8.554,14.235h.1l7.969-14.235h6.193v18.325h-4.771V497.184h-.086l-7.365,14.157h-3.984l-7.851-14.157h-.105v14.157Z" fill="#1a1311"/>
      <path id="패스_176" data-name="패스 176" d="M461.522,511.608V493.3h4.969v7.54H480.9V493.3h4.963v18.31H480.9v-8.459H466.491v8.459Z" fill="#1a1311"/>
      <path id="패스_177" data-name="패스 177" d="M520.017,493.147h-4.573l-10.97,18.343h4.68l3.253-5.451h10.65l3.25,5.451h4.668l-10.958-18.343m-2.239,3.958.85,1.445-.863-1.445h.013m-4.012,6.626,3.918-6.6,3.958,6.6Z" fill="#1a1311"/>
      <path id="패스_178" data-name="패스 178" d="M555.912,493.347h-4.574L540.379,511.7h4.669l3.25-5.452h10.654L562.2,511.7h4.669l-10.96-18.352m-2.218,3.955.827,1.458-.859-1.458h.032m-4.043,6.618,3.937-6.605,3.953,6.605Z" fill="#1a1311"/>
      <path id="패스_179" data-name="패스 179" d="M418.64,498.476c-.807-1.194-2.717-3.557-7.434-3.557-6.382,0-8.68,3.816-8.68,6.668,0,3.276,2.912,6.708,8.589,6.708,3.711,0,6.238-1.52,7.475-3.473h5.533c-2,4.193-7.137,6.709-13.008,6.709-8.681,0-13.565-5.074-13.565-9.944,0-5.089,5.26-9.888,13.607-9.888,7.483,0,11.962,3.972,12.966,6.777Z" fill="#1a1311"/>
    </g>
    <rect id="사각형_514" data-name="사각형 514" width="305" height="32" transform="translate(207 32)" fill="none"/>
  </g>
</svg>
