<?xml version="1.0" encoding="utf-8"?>
<!-- Generator: Adobe Illustrator 24.1.2, SVG Export Plug-In . SVG Version: 6.00 Build 0)  -->
<svg version="1.1" id="Layer_1" xmlns="http://www.w3.org/2000/svg" xmlns:xlink="http://www.w3.org/1999/xlink" x="0px" y="0px"
	 viewBox="0 0 455.8 108.3" style="enable-background:new 0 0 455.8 108.3;" xml:space="preserve">
<g>
	<path d="M4.8,34.9h16.4v26.2c0,2.1,0.2,3.5,0.6,4.3c0.4,0.8,1.1,1.2,2.1,1.2c1.8,0,2.8-1.8,2.8-5.5V34.9h16.4v26.2
		c0,2.1,0.2,3.5,0.6,4.3c0.4,0.8,1.1,1.2,2.1,1.2c1.8,0,2.7-1.8,2.7-5.5V34.9h16.4v30c0,5.5-1.7,10.1-5,13.9
		c-3.3,3.8-7.3,5.7-12,5.7c-4.9,0-9.2-2.3-13.1-6.8c-4.3,4.6-8.6,6.8-12.9,6.8c-5.5,0-9.9-2.2-13.2-6.6c-2.6-3.5-3.9-8.5-3.9-15.1
		V34.9z"/>
	<path d="M117.6,61.5H92.7c-0.4-1.4-0.6-2.7-0.6-3.9c0-1.6,0.3-3.2,0.8-4.8h8.4c-0.6-3.6-2.4-5.4-5.5-5.4c-2.1,0-3.7,1-5,2.9
		c-1.3,1.9-1.9,4.4-1.9,7.4c0,3.2,0.6,5.7,1.9,7.7c1.2,2,2.9,2.9,4.9,2.9c1.6,0,3.2-0.9,4.7-2.7l9.4,12.5c-4.4,3.8-9.2,5.7-14.5,5.7
		c-6.5,0-12-2.4-16.4-7.3c-4.4-4.9-6.6-10.9-6.6-18c0-7.1,2.2-13.2,6.7-18.1c4.5-4.9,10-7.4,16.5-7.4c6.4,0,11.7,2.4,16,7.2
		c4.3,4.8,6.5,10.7,6.5,17.7C117.8,58.8,117.7,60,117.6,61.5z"/>
	<path d="M139.9,16.3v39.9c0,6.5,2.1,9.7,6.3,9.7c1.8,0,3.3-0.7,4.5-2c1.2-1.4,1.9-3,1.9-4.9c0-2-0.6-3.7-1.8-5
		c-1.2-1.4-2.6-2-4.3-2c-1.2,0-2.6,0.6-4.1,1.8V33.5c1.9-0.2,3.4-0.3,4.4-0.3c6.2,0,11.5,2.5,15.9,7.4c4.4,4.9,6.6,10.9,6.6,17.9
		c0,7.1-2.2,13.1-6.7,18c-4.5,4.9-10,7.3-16.5,7.3c-3.3,0-6.5-0.8-9.6-2.4c-3.1-1.6-5.7-3.7-7.7-6.4c-3.5-4.7-5.3-10.8-5.3-18.2
		V16.3H139.9z"/>
	<path d="M226,16.3h16.4v40.6c0,7.5-1.8,13.5-5.3,18.2c-2,2.7-4.6,4.9-7.7,6.4c-3.1,1.6-6.3,2.4-9.6,2.4c-6.5,0-12-2.4-16.5-7.3
		c-4.5-4.9-6.7-10.9-6.7-18c0-6.9,2.2-12.8,6.7-17.8c4.5-5,9.7-7.5,15.8-7.5c1,0,2.4,0.1,4.4,0.3v20.1c-1.3-1.2-2.7-1.8-4-1.8
		c-1.7,0-3.2,0.7-4.4,2.1c-1.2,1.4-1.8,3.1-1.8,5c0,1.9,0.6,3.5,1.9,4.9c1.3,1.4,2.8,2,4.5,2c4.2,0,6.3-3.2,6.3-9.7V16.3z"/>
	<path d="M294.2,61.5h-24.9c-0.4-1.4-0.6-2.7-0.6-3.9c0-1.6,0.3-3.2,0.8-4.8h8.4c-0.6-3.6-2.4-5.4-5.5-5.4c-2.1,0-3.7,1-5,2.9
		c-1.3,1.9-1.9,4.4-1.9,7.4c0,3.2,0.6,5.7,1.9,7.7c1.2,2,2.9,2.9,4.9,2.9c1.6,0,3.2-0.9,4.7-2.7l9.4,12.5c-4.4,3.8-9.2,5.7-14.6,5.7
		c-6.5,0-12-2.4-16.4-7.3c-4.4-4.9-6.6-10.9-6.6-18c0-7.1,2.2-13.2,6.7-18.1c4.5-4.9,10-7.4,16.5-7.4c6.4,0,11.7,2.4,16,7.2
		c4.3,4.8,6.5,10.7,6.5,17.7C294.4,58.8,294.3,60,294.2,61.5z"/>
	<path d="M328.5,34.9v19.2c-2.3,0-3.9,0.5-4.8,1.4c-0.9,1-1.4,2.9-1.6,5.7c-0.8,9.4-4,16-9.8,19.9c-3.1,2-7.4,3-13.1,3h-2.3V64.9
		h0.7c2.6,0,4.5-0.6,5.6-1.8c1.1-1.2,1.8-3.4,2-6.4c0.2-5,0.7-8.5,1.3-10.5c0.6-2,1.8-4,3.7-6c3.2-3.5,7.7-5.2,13.4-5.2H328.5z"/>
	<path d="M350.3,34.2v48.7h-16.4V34.2H350.3z M342.1,12.5c2.2,0,4.2,0.9,5.8,2.6c1.6,1.7,2.4,3.8,2.4,6.2c0,2.5-0.8,4.6-2.3,6.3
		c-1.5,1.6-3.5,2.4-5.9,2.4c-2.4,0-4.4-0.8-5.9-2.4c-1.5-1.6-2.3-3.7-2.3-6.3c0-2.4,0.8-4.4,2.4-6.2C338,13.4,339.9,12.5,342.1,12.5
		z"/>
	<path d="M383.4,62.8v16.7c-2.4,1-4.6,1.5-6.8,1.5c-5.3,0-9.8-2.2-13.5-6.7c-3.7-4.5-5.5-9.9-5.5-16.4c0-7,2.2-12.8,6.6-17.6
		c4.4-4.8,9.9-7.2,16.3-7.2c3.4,0,6.7,0.8,9.8,2.3c3.1,1.5,5.6,3.6,7.4,6.2c3,4.3,4.5,10.4,4.5,18.6v16c0,8.7-2.2,15.7-6.7,21.2
		s-10.2,8.1-17.3,8.1c-2.2,0-4.9-0.6-8.2-1.8V87.1c2.1,1.3,4.3,2,6.5,2c3,0,5.2-1.1,6.9-3.2c1.6-2.2,2.4-5.3,2.4-9.3V58.2
		c0-5.1-1.9-7.7-5.6-7.7c-1.6,0-3,0.7-4.2,2c-1.2,1.4-1.8,2.9-1.8,4.7c0,1.9,0.6,3.4,1.7,4.6c1.1,1.2,2.5,1.9,4.2,1.9
		C381.3,63.7,382.3,63.4,383.4,62.8z"/>
	<path d="M451,82.9h-16.4V55.4c0-2.8-1-4.2-3.1-4.2c-2.1,0-3.1,1.4-3.1,4.2v27.5h-16.4V55.8c0-6.3,1.9-11.7,5.7-16s8.4-6.5,13.9-6.5
		c6.3,0,11.3,2.5,15.1,7.6c3,3.9,4.4,9.4,4.4,16.5V82.9z"/>
</g>
</svg>
